<svg xmlns="http://www.w3.org/2000/svg" xmlns:xlink="http://www.w3.org/1999/xlink" width="85.409" height="85.534" viewBox="0 0 85.409 85.534">
  <defs>
    <clipPath id="clip-path">
      <rect id="Rectangle_120" data-name="Rectangle 120" width="85.409" height="85.534" fill="#0f7c11"/>
    </clipPath>
  </defs>
  <g id="Group_271" data-name="Group 271" transform="translate(0 0)">
    <g id="Group_268" data-name="Group 268" transform="translate(0 0)" clip-path="url(#clip-path)">
      <path id="Path_161" data-name="Path 161" d="M42.694,72.768C36.77,82.51,28.586,87.3,17.451,84.939,8.224,82.982,2.253,76.891.528,67.69c-2.048-10.926,2.41-19.242,12.5-24.859C4.674,38.186-.051,31.464,0,21.943A20.88,20.88,0,0,1,7.351,5.769,21.407,21.407,0,0,1,26.618.5C33.8,1.968,39.044,6.214,42.535,13.054,48.844,2.943,57.305-2.013,68.941.99,77.95,3.315,83.613,9.511,85.058,18.62c1.678,10.569-2.691,18.635-12.6,24.1,8.425,4.823,13.122,11.752,12.878,21.357A21.4,21.4,0,0,1,78.5,79.264a21.978,21.978,0,0,1-12.416,5.991A22.335,22.335,0,0,1,52.493,82.79c-4.331-2.169-7.116-5.884-9.8-10.022" transform="translate(0 0)" fill="#0f7c11"/>
    </g>
  </g>
</svg>
