<svg id="Group_233" data-name="Group 233" xmlns="http://www.w3.org/2000/svg" xmlns:xlink="http://www.w3.org/1999/xlink" width="93.75" height="93.297" viewBox="0 0 93.75 93.297">
  <defs>
    <clipPath id="clip-path">
      <rect id="Rectangle_113" data-name="Rectangle 113" width="93.75" height="93.297" fill="none"/>
    </clipPath>
  </defs>
  <g id="Group_231" data-name="Group 231" transform="translate(0 0)" clip-path="url(#clip-path)">
    <path id="Path_153" data-name="Path 153" d="M27.98,54.079c-10.043,2.543-18.216,7.448-25.309-.733a9.6,9.6,0,0,1-.992-12.058c5.958-9.39,14.492-5.464,22.794-3.918-6.5-4.994-15.654-7.882-13.139-18.7,1-4.3,3.789-7.265,8.161-8.07,9.066-1.668,12.708,5.228,17.761,13.62-1.1-9.786-4.419-17.985,4.485-22.77a10.128,10.128,0,0,1,11.445.683c8.956,6.621,3.651,14.966,2.087,23.951,5.651-7.341,7.82-17.2,18.891-15.521a9.681,9.681,0,0,1,8.4,7.8c2.309,10.539-5.988,14.187-12.992,18.835C77.6,36.029,85.939,32.008,91.9,40.73c2.648,3.875,2.409,8.223-.424,12.145-6.045,8.373-13.921,4.272-23.8,2.284,8.59,5.6,17.271,8.786,14.993,19.234-1.009,4.626-4.035,7.865-8.8,8.375C63.3,83.9,60.464,74.89,55.045,66.075c1.787,10.152,7.322,18.586-1.834,25.176-3.876,2.789-8.22,2.643-12.185.068-7.922-5.145-5.069-12.669-3.54-20.98-4.516,4.028-5.805,9.447-10.695,11.4-5.085,2.036-9.582,1.49-13.2-2.749-6.055-7.1-2.46-13.862,14.387-24.915" transform="translate(0 0)" fill="#0f7c11"/>
  </g>
</svg>
