<svg xmlns="http://www.w3.org/2000/svg" xmlns:xlink="http://www.w3.org/1999/xlink" width="69.786" height="69.888" viewBox="0 0 69.786 69.888">
  <defs>
    <clipPath id="clip-path">
      <rect id="Rectangle_120" data-name="Rectangle 120" width="69.786" height="69.888" transform="translate(0 0)"/>
    </clipPath>
  </defs>
  <g id="Group_270" data-name="Group 270" transform="translate(0 0)">
    <g id="Group_268" data-name="Group 268" clip-path="url(#clip-path)">
      <path id="Path_161" data-name="Path 161" d="M34.884,59.457c-4.84,7.96-11.527,11.875-20.625,9.945C6.72,67.8,1.841,62.826.431,55.308-1.242,46.381,2.4,39.586,10.648,35,3.819,31.2-.042,25.709,0,17.929A17.061,17.061,0,0,1,6.006,4.714,17.491,17.491,0,0,1,21.749.406c5.869,1.2,10.153,4.671,13.005,10.26C39.909,2.4,46.823-1.645,56.33.809c7.361,1.9,11.988,6.962,13.169,14.4C70.87,23.85,67.3,30.44,59.2,34.908c6.884,3.941,10.722,9.6,10.522,17.45a17.489,17.489,0,0,1-5.587,12.407,17.958,17.958,0,0,1-10.145,4.9,18.25,18.25,0,0,1-11.1-2.014c-3.539-1.772-5.814-4.808-8.007-8.189"/>
    </g>
  </g>
</svg>
