<?xml version="1.0" encoding="UTF-8"?>
<svg id="Layer_2" data-name="Layer 2" xmlns="http://www.w3.org/2000/svg" viewBox="0 0 810.4 138.6">
  <defs>
    <style>
      .cls-1 {
        fill: #231f20;
      }
    </style>
  </defs>
  <g id="Layer_1-2" data-name="Layer 1">
    <path class="cls-1" d="m86,5.2c-6.6-2.2-13.2-3.2-19.4-3.2-14,0-24.8,5.8-23.4,19,3.4,31.2,90,36.4,90,75.6s-32.4,40.6-62.4,40.6S10.6,128.8,0,109.4l.8-1.4c3.4-3,14.8-11.4,18.8-11.4s2,0,3,.2l17.8,33.2c6,3.2,21,5,28.6,5,20.2,0,40.6-5.8,40.6-21,0-34.8-84.8-40.6-90.8-74.4C13.6,10.4,36.2,0,61.4,0s54.4,7.2,62.4,23.2l-.8,1.4c-4.4,4-18.6,10.6-23.6,9.8l-13.4-29.2Z"/>
    <path class="cls-1" d="m280.2,122.8c-12.4,8.2-18.2,15.4-18.2,15.4l-2.4.4-37.2-7.4v-12c-4.8,11.4-13.4,19.4-33.6,19.4s-45.8-12-45.8-31.4,25.2-38,48.4-38,22,4.4,28,8.6c-6.4-8-22.2-15.4-43.2-15.6-7.8-1-22.4-12.2-22.4-12.2v-1.4c3-2.6,3.8-8,45-8s62.2,28.8,62.2,28.8v52c0,4.6-.2,11.6,2,11.6s4.2-2.2,7.6-4.6c4-3.2,7.8-7.2,7.8-7.2l1.8,1.6Zm-57.8-53.4c0-1.8-.4-26.8-23.6-26.8s-18.6,11-19.4,16.8c21,2.6,37.4,10.2,43,19.8v-9.8Zm0,16.4c-4.6-8-14-12.2-20.2-12.2-12.6,0-21.2,17.4-21.2,32.2s5.8,29.2,19.6,29.2,19.8-14.4,21.8-23v-26.2Z"/>
    <path class="cls-1" d="m374.8,76.6c-9.2,17.8-18.4,36-27.6,53.6l6.6,6.2-1.8,1.8c-9.6-3-62.6-2.4-62.6-2.4v-1.8s9.8,1.4,11.8-8.2c-11.6-22.8-23.6-46-35.2-68.8l-12.4-1-.4-1.4c18.4-3.8,39-13.6,40.8-15.8.4-.4,1.2-.6,2-.6,1.6,0,3.8.8,3.8.8l42.2,86.6,3.2,3,20.6-39.6c3.2-10.6-26.8-39.4-26.2-40.4,4.6-7.4,35-9,35-9l1.8.2c2.2,3,8.6,5-1.6,36.8Z"/>
    <path class="cls-1" d="m524.2,89.6c0,29.2-31.6,49-68.2,49s-68.2-19.8-68.2-49,31.4-49,68.2-49,68.2,19.6,68.2,49Zm-64.6-47c-17.8-1.8-31,15.8-33.2,43.8-2,28.2,8.4,48.2,26,50,17.8,1.8,31-15.8,33-43.8,2.2-28-8.2-48-25.8-50Z"/>
    <path class="cls-1" d="m680.2,134.4v1.6c-30.4,0-52.4,2.4-52.4,2.4l-2.2-.8,4-13.8v-15.6c-2.6,9.4-6.6,28.8-28.6,28.8s-51.8-15.6-52.2-32.2v-48.2l-17.4-5.2v-1.4c8.8-1,42.6-4.6,49.6-9.4,1.6-1,6.4,1.4,6.4,1.4v63c0,4.6-.8,29,13.4,29s27-20.4,28.8-36.8v-40.6l-17.6-5.2v-1.4c16.2-2,48.8-7.6,51.4-9.4,1.8-1,4.8,1.4,4.8,1.4v81.2c0,12.8,12,11.2,12,11.2Z"/>
    <path class="cls-1" d="m805.6,60.4c1.2,0,2.4-.2,3.6-.6l1.2,1.2c-3.8,5.6-13.2,17.8-23.6,17.6-16.4-.2-15.6-20.4-30-20.4s-11,6-15.2,22.2v43.4l4,14-2.2.8s-22.2-2.2-52.4-2.2v-1.8s10.8,1.4,11.8-9.4V56.4l-16.4-5v-1.2c15.8-2,48-7.6,50.6-9.2,1.6-1.2,4.6,1.4,4.6,1.4v29.8c4.8-12.4,10.6-32,32.6-32s20.4,20.2,31.4,20.2Z"/>
  </g>
</svg>