<?xml version="1.0" encoding="UTF-8"?>
<svg id="Layer_2" data-name="Layer 2" xmlns="http://www.w3.org/2000/svg" viewBox="0 0 361.43 213.82">
  <defs>
    <style>
      .cls-1 {
        font-family: Benzin-Bold, Benzin-Bold;
        font-size: 46px;
        font-weight: 700;
        isolation: isolate;
      }

      .cls-1, .cls-2 {
        fill: #fff4e6;
      }

      .cls-3 {
        fill: #0f7c11;
      }
    </style>
  </defs>
  <g id="UD">
    <path id="Out_Stroke" data-name="Out Stroke" class="cls-2" d="m11.71,171.04c-2.13-1.9-4.37-3.66-6.72-5.28-6.2-3.79-6.99-10.15.24-14.68,2.21-1.56,4.33-3.25,6.35-5.05-1.88-3.39-5.33-4.84-7.87-7.18-4.81-4.42-4.91-7.88-.12-12.17,1.34-1.2,2.82-2.25,4.22-3.39,1.2-.97,2.38-1.96,3.78-3.1-1.97-3.33-5.35-4.87-7.97-7.21-4.77-4.27-4.84-8.02-.01-12.19,2.52-2.18,5.22-4.15,8.52-6.74-3.32-2.69-6.32-4.93-9.09-7.43-4.06-3.67-4.05-7.42.03-11.14,2.64-2.4,5.52-4.54,8.67-7.11-2.2-2.98-5.19-4.53-7.63-6.66-5.51-4.8-5.48-8.41.25-13.18,2.36-1.96,4.82-3.79,7.4-5.8-2.38-3.3-5.68-4.97-8.29-7.4-5.08-4.74-3.85-10.32,2.81-12.09,4.49-1.19,9.04-2.18,13.09-4.56,4.79-2.81,8.88-6.1,9.37-12.35C29.05,2.09,31.79.02,36.05.02c1.55,0,3.1-.01,4.65-.01C133.89,0,227.08,0,320.27,0c2.06,0,4.14-.05,6.19.09,2.87.2,5.17,1.78,5.6,4.52,1.76,11.29,10.46,14.41,19.55,17.18.98.3,2.02.42,3.03.64,3.26.72,5.77,2.4,6.54,5.81.73,3.25-1.34,5.27-3.52,7.22-2.65,2.36-6.15,3.81-7.96,7.3,2.87,2.31,5.8,4.43,8.47,6.86,4.33,3.95,4.35,7.11.07,11.04-2.64,2.42-5.54,4.54-8.53,6.96,1.87,3.2,4.92,4.75,7.41,6.88,5.76,4.91,5.74,8.07-.16,13.06-2.36,1.99-4.8,3.89-7.44,6.01,1.78,2.82,4.57,4.22,6.86,6.13,6.69,5.56,6.71,8.61.16,14.08-2.34,1.95-5.28,3.29-6.87,6.38,2.2,1.78,4.4,3.53,6.58,5.31,6.96,5.69,6.91,8.65-.26,14.5-2,1.63-3.99,3.26-6.15,5.02,1.61,3.57,5.15,4.97,7.76,7.31,5,4.49,5.08,7.7.12,12.12-1.35,1.2-2.85,2.22-4.25,3.35-1.2.97-2.37,1.97-3.91,3.27,1.79,3,4.84,4.45,7.29,6.46,2.65,2.18,4.1,4.66,3.1,8.07-.93,3.17-3.56,4.36-6.5,4.66-5.67.48-11.17,2.14-16.16,4.88-4.66,2.64-8.11,6.01-9.1,11.74-.98,5.61-2.69,6.66-8.42,6.91-1.8.08-3.61.02-5.42.02H37.08c-1.81,0-3.61,0-5.42-.02-3.89-.06-6.68-2.07-7.17-5.77-1.1-8.22-7.04-11.47-13.56-14.38-2.57-1.15-5.43-1.57-7.68-3.5-4.02-3.46-4.28-7.55-.43-11.22,2.77-2.64,6.39-4.35,8.9-7.87M352.47,30.39c-.63-1.84-1.96-2.01-3.17-2.42-9.96-3.36-19.49-7.25-23.13-18.55-.73-2.28-2.69-2.99-4.9-3.05-2.06-.05-4.13-.08-6.19-.08H45.62c-1.81,0-3.61.06-5.42.04-2.92-.04-4.85,1.07-5.65,4.12-2.36,9.02-9.66,12.87-17.3,16.36-2.48,1.13-5.67.93-7.34,3.7.5,2.67,2.79,3.63,4.53,5.08,1.59,1.32,3.2,2.61,4.77,3.94,2.64,2.24,2.33,4.23-.39,6.23-2.7,1.98-5.3,4.11-7.86,6.27-3.72,3.14-3.73,3.73.15,6.96,2.38,1.98,4.97,3.7,7.37,5.66,3.98,3.25,4,3.79.22,6.91-2.58,2.14-5.39,4-7.94,6.17-3.55,3.02-3.54,3.51-.07,6.46,2.75,2.34,5.61,4.55,8.47,6.75,2.41,1.85,2.56,3.75.23,5.69-1.98,1.65-4.1,3.13-6.1,4.75-5.93,4.8-5.89,6.08.24,11.01,2.01,1.61,4.04,3.21,5.98,4.9s2.11,3.38-.12,5.08c-2.87,2.19-5.7,4.43-8.49,6.72-3.7,3.05-3.7,3.97-.07,7.17.96.85,2.09,1.51,3.1,2.31,10,7.87,10.1,6.3.15,14.1-7.53,5.91-7.7,5.99.02,11.64,8.41,6.16,9.88,6.89.07,13.91-7.43,5.32-7.14,6.5,1.29,10.32,6.8,3.08,12.53,7.25,14.73,14.84.88,3.01,2.97,4.02,5.79,4.09,2.32.06,4.65.08,6.97.08,88.79,0,177.57,0,266.36,0,1.81,0,3.62-.1,5.42,0,3.77.21,6.21-1.07,7.7-4.91,3.66-9.42,11.22-14.38,20.62-17.1,2.59-.75,5.63-.63,8.33-3.31-2.55-2.25-4.8-4.29-7.11-6.25-5.27-4.46-5.31-5.02-.28-9.23,2.18-1.82,4.31-3.71,6.62-5.35,2.66-1.88,2.42-3.72.24-5.62-2.72-2.37-5.61-4.54-8.27-6.98-3.04-2.78-3.02-4.05.15-6.88,2.11-1.88,4.52-3.43,6.71-5.23,4.35-3.59,4.33-4.67.01-8.31-.59-.5-1.26-.91-1.87-1.38-9.12-7.03-9.12-7.08-.46-14.23q7.53-6.22.03-11.99c-1.43-1.1-2.89-2.17-4.3-3.3-4.05-3.27-4.05-3.51-.3-6.82,2.13-1.88,4.32-3.69,6.4-5.62,3.91-3.65,3.92-5-.1-8.6-2.11-1.89-4.48-3.48-6.6-5.35-2.16-1.91-2.16-4.05.03-5.94,2.54-2.19,5.31-4.11,7.77-6.38,3.59-3.31,3.55-4.26.03-7.35-1.55-1.36-3.33-2.44-4.91-3.76-6.05-5.09-5.96-6.1.1-10.95,2.53-2.03,5.7-3.46,7.21-6.35"/>
    <path id="Out_Gr" data-name="Out Gr" class="cls-3" d="m352.47,30.39c-1.51,2.89-4.67,4.33-7.2,6.35-6.06,4.85-6.15,5.87-.11,10.95,1.58,1.33,3.37,2.4,4.91,3.76,3.52,3.09,3.56,4.04-.03,7.35-2.46,2.27-5.23,4.19-7.77,6.38-2.19,1.89-2.2,4.04-.03,5.94,2.12,1.87,4.5,3.46,6.6,5.35,4.02,3.6,4.02,4.95.1,8.6-2.08,1.94-4.27,3.75-6.4,5.62-3.75,3.31-3.75,3.55.3,6.82,1.4,1.13,2.87,2.2,4.3,3.3q7.51,5.77-.03,11.99c-8.65,7.15-8.65,7.2.46,14.23.61.47,1.28.88,1.87,1.38,4.31,3.63,4.34,4.71-.01,8.31-2.19,1.81-4.6,3.35-6.71,5.23-3.17,2.83-3.19,4.1-.15,6.88,2.66,2.43,5.55,4.6,8.27,6.98,2.18,1.9,2.42,3.74-.24,5.62-2.31,1.63-4.44,3.53-6.62,5.35-5.04,4.21-5,4.77.28,9.23,2.32,1.96,4.56,4,7.11,6.25-2.7,2.69-5.73,2.56-8.33,3.32-9.4,2.72-16.96,7.68-20.62,17.1-1.49,3.83-3.93,5.11-7.7,4.91-1.8-.1-3.61,0-5.42,0H42.96c-2.32,0-4.65-.02-6.97-.08-2.83-.07-4.91-1.08-5.79-4.09-2.21-7.59-7.93-11.76-14.74-14.84-8.43-3.82-8.73-5-1.29-10.32,9.81-7.02,8.34-7.76-.07-13.91-7.73-5.65-7.56-5.73-.02-11.64,9.94-7.81,9.84-6.23-.15-14.1-1.01-.8-2.14-1.46-3.1-2.31-3.63-3.2-3.63-4.11.07-7.17,2.78-2.3,5.61-4.54,8.49-6.72,2.23-1.7,2.06-3.39.12-5.08s-3.98-3.28-5.99-4.9c-6.14-4.93-6.18-6.21-.24-11.01,2-1.62,4.12-3.1,6.1-4.75,2.33-1.94,2.18-3.84-.23-5.69-2.86-2.2-5.72-4.42-8.47-6.75-3.47-2.95-3.48-3.44.06-6.47,2.55-2.17,5.36-4.04,7.94-6.17,3.77-3.12,3.75-3.65-.22-6.91-2.39-1.96-4.99-3.68-7.37-5.66-3.88-3.23-3.87-3.82-.15-6.96,2.56-2.16,5.16-4.29,7.86-6.27,2.73-2,3.03-3.99.39-6.23-1.57-1.33-3.18-2.62-4.77-3.94-1.74-1.45-4.03-2.41-4.53-5.08,1.68-2.76,4.87-2.56,7.34-3.7,7.65-3.5,14.95-7.34,17.3-16.36.8-3.05,2.73-4.15,5.65-4.12,1.81.02,3.61-.04,5.42-.04h269.46c2.06,0,4.13.02,6.19.08,2.21.06,4.17.76,4.9,3.05,3.64,11.3,13.17,15.18,23.13,18.54,1.21.41,2.55.58,3.17,2.42"/>
    <path id="In_Stroke" data-name="In Stroke" class="cls-2" d="m180.96,32.66c39.47,0,78.93,0,118.4,0,10.66,0,10.69.05,10.69,10.71,0,42.58,0,85.17,0,127.75,0,.52,0,1.03,0,1.55-.12,8.16-.45,8.51-8.95,8.57-8,.05-15.99.01-23.99.01-71.2,0-142.4,0-213.59.01-13.24,0-12.19-.12-12.19-12.37,0-39.49-.01-78.97-.02-118.46,0-3.61-.19-7.22-.43-10.81-.39-5.81.26-6.61,6.25-6.93,2.06-.11,4.13-.04,6.19-.04h117.63"/>
    <path id="Plate" class="cls-3" d="m304.38,46.24c-.28-6.19-.95-6.84-7.43-7.07-1.8-.07-3.61-.02-5.42-.02h-110.75,0c-38.47,0-76.93,0-115.4.01-8.41,0-8.79.47-8.94,8.65,0,.52,0,1.03,0,1.55,0,38.48,0,76.97.01,115.45,0,10.9.04,10.91,11.28,10.91,66.61,0,133.21,0,199.82,0,9.81,0,19.62.09,29.43-.04,6.53-.08,7.13-.78,7.41-7.03.06-1.29.02-2.58.02-3.87V50.11c0-1.29.04-2.59-.02-3.87Z"/>
    <path id="Star1" class="cls-2" d="m86.89,85.63c1.73.36,3.04,1.78,3.28,3.53l1.47,10.39,1.47-10.39c.23-1.75,1.55-3.17,3.28-3.53l5.18-1.04-5.18-1.04c-1.73-.36-3.04-1.78-3.28-3.53l-1.47-10.39-1.47,10.39c-.23,1.75-1.55,3.17-3.28,3.53l-5.18,1.04,5.19,1.03Z"/>
    <path id="Star2" class="cls-2" d="m266.33,79.21c1.73.36,3.04,1.78,3.28,3.53l1.47,10.39,1.47-10.39c.23-1.75,1.55-3.17,3.28-3.53l5.18-1.04-5.18-1.04c-1.73-.36-3.04-1.78-3.28-3.53l-1.47-10.39-1.47,10.39c-.23,1.75-1.55,3.17-3.28,3.53l-5.19,1.04,5.19,1.04Z"/>
    <text class="cls-1" transform="translate(153.95 99.22)"><tspan x="0" y="0">UI</tspan></text>
    <text class="cls-1" transform="translate(81.88 147.96)"><tspan x="0" y="0">Design</tspan></text>
  </g>
</svg>