<svg id="Group_277" data-name="Group 277" xmlns="http://www.w3.org/2000/svg" xmlns:xlink="http://www.w3.org/1999/xlink" width="301.47" height="96.646" viewBox="0 0 301.47 96.646">
  <defs>
    <clipPath id="clip-path">
      <rect id="Rectangle_110" data-name="Rectangle 110" width="301.47" height="96.646" fill="none"/>
    </clipPath>
    <clipPath id="clip-path-2">
      <rect id="Rectangle_111" data-name="Rectangle 111" width="13.262" height="19.825" fill="none"/>
    </clipPath>
  </defs>
  <g id="Group_225" data-name="Group 225">
    <g id="Group_224" data-name="Group 224" clip-path="url(#clip-path)">
      <path id="Path_146" data-name="Path 146" d="M.348,42.645C2.158,30.633,9.3,21.631,21.484,15.725c4-1.941,6.469-3.923,5.621-8.329-1.02-5.3,3.671-5.5,8.139-5.534,27.969-.228,55.945-.358,83.9-.731,6.4-.085,11.438.309,16.508,5.222,7.031,6.813,19.883,5.65,26.16-1.686,2.641-3.086,5.432-4.162,9.76-4.171C200.8.432,230.016.32,259.22,0c6.715-.072,11.592.683,10.884,7.823-.294,2.963,2.312,4.316,5.135,5.749,33.039,16.769,35.269,50.444,4.4,67.424-3.333,1.834-4.845,3.705-4.22,7.1.9,4.887-1.922,6.759-7.581,6.784-30.225.135-60.441.414-90.659.659-3.608.029-6.409-.623-9.2-3.31-8.973-8.645-21.4-8.351-29.388.589-2.029,2.272-4.009,3.087-7.312,3.1-30.218.125-60.438.253-90.632.715-5.576.085-8.456-1.392-8.089-5.937.38-4.707-3.3-6.114-7.206-7.939C7.342,74.354-1.965,59.287.348,42.645" transform="translate(0 0)" fill="#0f7c11"/>
      <path id="Path_147" data-name="Path 147" d="M299.612,63.476c-1.5,8.025-8.189,15.359-18.784,20.183-3.073,1.4-5.2,2.707-4.872,6.095.413,4.291-2.709,5.723-7.592,5.743-29.21.119-58.412.352-87.616.551a10.256,10.256,0,0,1-7.4-2.614c-7.717-6.666-17.938-6.741-24.5-.154a9.325,9.325,0,0,1-7.489,2.962q-42.673.091-85.325.5c-5.355.044-9.227-1.2-9.147-6.369.061-3.952-4.073-4.068-6.792-5.246-19.394-8.4-28.023-24.588-20.752-39.46,3.526-7.211,9.853-12.364,18.115-15.769,3.227-1.33,5.137-2.733,4.9-6.065-.287-4.095,3.074-5.235,7.411-5.256,29.2-.141,58.41-.258,87.6-.532,3.073-.029,4.479,1.342,6.353,2.916,7.585,6.372,18.1,6.355,24.663-.266a8.73,8.73,0,0,1,6.867-2.842q43.814-.137,87.621-.381c4.294-.026,8.152.767,8.294,4.882.136,3.943,2.67,5.378,6.412,7.039,15.943,7.074,24.168,19.053,22.033,34.087" transform="translate(-8.464 -8.812)" fill="#fff4e6"/>
      <path id="Path_148" data-name="Path 148" d="M299.425,67.273c-1.292,6.628-7.786,13.027-17.5,17.407-2.591,1.168-6.287,1.906-5.883,4.963.863,6.531-3.942,6.1-9.465,6.1-25.8-.012-51.591.212-77.379.418-4.194.034-7.591-.57-11.158-3.217-8.352-6.2-20.035-6.015-27.745.309-2.977,2.442-5.985,3.151-10,3.156q-39.467.049-78.916.373c-4.223.034-7.722.09-7.687-4.733.028-3.794-3.954-4.588-7.253-5.883-19.193-7.54-27.611-23.086-19.859-36.752,3.53-6.222,9.395-10.575,16.843-13.517,2.71-1.07,6.2-1.874,5.807-4.957C48.552,25.7,52.149,25.327,57,25.327q39.856,0,79.693-.28a12.528,12.528,0,0,1,8.272,2.488c9.5,6.912,20.912,6.805,29.5-.24a10.352,10.352,0,0,1,7.218-2.439q42.144-.12,84.276-.424c2.892-.02,5.472.3,5.319,3.212-.257,4.908,3.892,6.384,8.217,8.234,14.505,6.2,22.134,17.107,19.931,31.4" transform="translate(-11.962 -12.325)" fill="#0f7c11"/>
    </g>
  </g>
  <text id="Visual_Design" data-name="Visual Design" transform="translate(46.397 57.464)" fill="#fff4e6" font-size="29" font-family="Beastly-12Point, Beastly"><tspan x="0" y="0">Vi</tspan><tspan y="0" letter-spacing="-0.003em">s</tspan><tspan y="0">ual Design</tspan></text>
  <g id="Group_227" data-name="Group 227" transform="translate(20.569 37.027)">
    <g id="Group_226" data-name="Group 226" clip-path="url(#clip-path-2)">
      <path id="Path_149" data-name="Path 149" d="M45.193,85.461a2.719,2.719,0,0,1,2.139,2.3l.959,6.785.959-6.785a2.718,2.718,0,0,1,2.139-2.3l3.384-.676L51.39,84.11a2.718,2.718,0,0,1-2.139-2.3l-.959-6.785-.959,6.785a2.717,2.717,0,0,1-2.139,2.3l-3.384.676Z" transform="translate(-41.66 -74.873)" fill="#fff4e6"/>
      <path id="Path_150" data-name="Path 150" d="M45.193,85.461a2.719,2.719,0,0,1,2.139,2.3l.959,6.785.959-6.785a2.718,2.718,0,0,1,2.139-2.3l3.384-.676L51.39,84.11a2.718,2.718,0,0,1-2.139-2.3l-.959-6.785-.959,6.785a2.717,2.717,0,0,1-2.139,2.3l-3.384.676Z" transform="translate(-41.66 -74.873)" fill="#fff4e6"/>
    </g>
  </g>
  <g id="Group_229" data-name="Group 229" transform="translate(265.759 38.411)">
    <g id="Group_228" data-name="Group 228" clip-path="url(#clip-path-2)">
      <path id="Path_151" data-name="Path 151" d="M540,88.253a2.719,2.719,0,0,1,2.139,2.3l.959,6.785.959-6.785a2.718,2.718,0,0,1,2.139-2.3l3.384-.676-3.384-.675a2.718,2.718,0,0,1-2.139-2.3l-.959-6.785-.959,6.785A2.717,2.717,0,0,1,540,86.9l-3.384.676Z" transform="translate(-536.464 -77.665)" fill="#fff4e6"/>
      <path id="Path_152" data-name="Path 152" d="M540,88.253a2.719,2.719,0,0,1,2.139,2.3l.959,6.785.959-6.785a2.718,2.718,0,0,1,2.139-2.3l3.384-.676-3.384-.675a2.718,2.718,0,0,1-2.139-2.3l-.959-6.785-.959,6.785A2.717,2.717,0,0,1,540,86.9l-3.384.676Z" transform="translate(-536.464 -77.665)" fill="#fff4e6"/>
    </g>
  </g>
</svg>
