<?xml version="1.0" encoding="UTF-8"?>
<svg id="Layer_2" data-name="Layer 2" xmlns="http://www.w3.org/2000/svg" viewBox="0 0 337.27 173.75">
  <defs>
    <style>
      .cls-1, .cls-2 {
        fill: #fff4e6;
      }

      .cls-2 {
        font-family: Benzin-Bold, Benzin-Bold;
        font-size: 35px;
        font-weight: 700;
        isolation: isolate;
      }

      .cls-3 {
        letter-spacing: 0em;
      }
    </style>
  </defs>
  <g id="Layer_1-2" data-name="Layer 1">
    <path id="Plate" d="m87.37,3.2h163c46.12,0,83.5,37.38,83.5,83.5h0c0,46.12-37.38,83.5-83.5,83.5H87.37c-46.12,0-83.5-37.38-83.5-83.5h0C3.87,40.59,41.25,3.2,87.37,3.2Z"/>
    <path id="Stroke" class="cls-1" d="m168.6,173.67c-28.28,0-56.56-.31-84.83.08-39.57.54-77.98-28.55-82.96-73.74-2.89-26.28,1.63-50.93,19.9-71.49C36.98,10.2,57.47.39,81.89.25c57.83-.33,115.66-.34,173.5-.03,45.67.25,81.59,37.12,81.88,82.93.09,13.52-.94,26.69-6.19,39.36-12.6,30.77-42.48,50.94-75.73,51.13-28.92.11-57.83.02-86.75.02m.07-5.28c28.68,0,57.37.11,86.06-.03,36.37-.18,66.82-24.6,75.15-59.93,1.97-8.36,2.11-16.83,2.06-25.34-.26-42.7-33.48-77.08-76.03-77.42-58-.47-116.02-.35-174.02-.04-32.76.17-61.01,20.92-71.88,51.6-4.05,11.43-4.74,23.24-4.35,35.2.41,12.73,3.23,24.86,9.64,35.93,14.97,25.83,37.57,39.38,67.32,39.92,28.68.52,57.37.11,86.05.11"/>
    <path id="Star1" class="cls-1" d="m35.77,88.63c2.93.61,5.15,3.01,5.55,5.97l2.49,17.6,2.49-17.6c.39-2.97,2.62-5.36,5.55-5.97l8.78-1.75-8.78-1.75c-2.93-.61-5.15-3.01-5.55-5.97l-2.49-17.6-2.49,17.6c-.39,2.97-2.62,5.36-5.55,5.97l-8.78,1.75,8.78,1.75Z"/>
    <path id="Star2" class="cls-1" d="m285.44,88.63c2.93.61,5.15,3.01,5.54,5.97l2.49,17.6,2.49-17.6c.39-2.97,2.62-5.36,5.55-5.97l8.78-1.75-8.78-1.75c-2.93-.61-5.15-3.01-5.55-5.97l-2.49-17.6-2.49,17.6c-.39,2.97-2.62,5.36-5.55,5.97l-8.78,1.75,8.78,1.75Z"/>
    <text class="cls-2" transform="translate(134.7 75.61)"><tspan x="0" y="0">Art</tspan></text>
    <text class="cls-2" transform="translate(74.82 117.53)"><tspan x="0" y="0">Dire</tspan><tspan class="cls-3" x="87.85" y="0">c</tspan><tspan x="114.24" y="0">tion</tspan></text>
  </g>
</svg>