<?xml version="1.0" encoding="UTF-8"?>
<svg id="Layer_2" data-name="Layer 2" xmlns="http://www.w3.org/2000/svg" viewBox="0 0 301.47 96.64">
  <defs>
    <style>
      .cls-1 {
        font-family: Benzin-Bold, Benzin-Bold;
        font-size: 25px;
        font-weight: 700;
      }

      .cls-1, .cls-2 {
        fill: #fff4e6;
      }

      .cls-3 {
        fill: #0f7c11;
      }
    </style>
  </defs>
  <g id="VD">
    <path id="Stroke" class="cls-3" d="m.35,42.65c1.81-12.01,8.95-21.01,21.14-26.92,4-1.94,6.47-3.92,5.62-8.33-1.02-5.3,3.67-5.5,8.14-5.53,27.97-.23,55.94-.36,83.9-.73,6.4-.09,11.44.31,16.51,5.22,7.03,6.81,19.88,5.65,26.16-1.69,2.64-3.09,5.43-4.16,9.76-4.17,29.23-.06,58.44-.18,87.65-.5,6.71-.07,11.59.68,10.88,7.82-.29,2.96,2.31,4.32,5.14,5.75,33.04,16.77,35.27,50.44,4.4,67.42-3.33,1.83-4.85,3.71-4.22,7.1.9,4.89-1.92,6.76-7.58,6.78-30.23.14-60.44.41-90.66.66-3.61.03-6.41-.62-9.2-3.31-8.97-8.64-21.4-8.35-29.39.59-2.03,2.27-4.01,3.09-7.31,3.1-30.22.12-60.44.25-90.63.71-5.58.08-8.46-1.39-8.09-5.94.38-4.71-3.3-6.11-7.21-7.94C7.34,74.36-1.96,59.29.35,42.65"/>
    <path id="WStroke" class="cls-2" d="m291.15,54.67c-1.5,8.02-8.19,15.36-18.78,20.18-3.07,1.4-5.2,2.71-4.87,6.1.41,4.29-2.71,5.72-7.59,5.74-29.21.12-58.41.35-87.62.55-2.72.14-5.38-.8-7.4-2.61-7.72-6.67-17.94-6.74-24.5-.15-1.92,2.07-4.67,3.16-7.49,2.96-28.45.06-56.89.23-85.32.5-5.35.04-9.23-1.2-9.15-6.37.06-3.95-4.07-4.07-6.79-5.25C12.24,67.92,3.61,51.73,10.88,36.86c3.53-7.21,9.85-12.36,18.11-15.77,3.23-1.33,5.14-2.73,4.9-6.07-.29-4.09,3.07-5.24,7.41-5.26,29.2-.14,58.41-.26,87.6-.53,3.07-.03,4.48,1.34,6.35,2.92,7.59,6.37,18.1,6.35,24.66-.27,1.75-1.92,4.27-2.96,6.87-2.84,29.21-.09,58.42-.22,87.62-.38,4.29-.03,8.15.77,8.29,4.88.14,3.94,2.67,5.38,6.41,7.04,15.94,7.07,24.17,19.05,22.03,34.09"/>
    <path id="Plate" class="cls-3" d="m287.46,54.95c-1.29,6.63-7.79,13.03-17.5,17.41-2.59,1.17-6.29,1.91-5.88,4.96.86,6.53-3.94,6.1-9.46,6.1-25.8-.01-51.59.21-77.38.42-4.19.03-7.59-.57-11.16-3.22-8.35-6.2-20.04-6.01-27.74.31-2.98,2.44-5.99,3.15-10,3.16-26.31.03-52.62.16-78.92.37-4.22.03-7.72.09-7.69-4.73.03-3.79-3.95-4.59-7.25-5.88-19.19-7.54-27.61-23.09-19.86-36.75,3.53-6.22,9.39-10.58,16.84-13.52,2.71-1.07,6.2-1.87,5.81-4.96-.68-5.24,2.92-5.61,7.77-5.61,26.57,0,53.14-.09,79.69-.28,2.97-.18,5.9.7,8.27,2.49,9.5,6.91,20.91,6.81,29.5-.24,2.01-1.7,4.59-2.57,7.22-2.44,28.1-.08,56.19-.22,84.28-.42,2.89-.02,5.47.3,5.32,3.21-.26,4.91,3.89,6.38,8.22,8.23,14.51,6.2,22.13,17.11,19.93,31.4"/>
    <path id="Star1" class="cls-2" d="m24.1,47.62c1.13.24,1.99,1.16,2.14,2.3l.96,6.79.96-6.79c.15-1.14,1.01-2.06,2.14-2.3l3.38-.68-3.38-.67c-1.13-.24-1.99-1.16-2.14-2.3l-.96-6.79-.96,6.79c-.15,1.14-1.01,2.06-2.14,2.3l-3.38.68,3.38.67Z"/>
    <path id="Star2" class="cls-2" d="m269.3,49c1.13.24,1.99,1.16,2.14,2.3l.96,6.78.96-6.79c.15-1.14,1.01-2.06,2.14-2.3l3.38-.68-3.38-.68c-1.13-.24-1.99-1.16-2.14-2.3l-.96-6.78-.96,6.79c-.15,1.14-1.01,2.06-2.14,2.3l-3.38.68,3.38.68Z"/>
    <text class="cls-1" transform="translate(44.8 57.29)"><tspan x="0" y="0">Visual Design</tspan></text>
  </g>
</svg>