<svg id="Group_280" data-name="Group 280" xmlns="http://www.w3.org/2000/svg" xmlns:xlink="http://www.w3.org/1999/xlink" width="300.718" height="170.506" viewBox="0 0 300.718 170.506">
  <defs>
    <clipPath id="clip-path">
      <rect id="Rectangle_76" data-name="Rectangle 76" width="300.718" height="170.506" fill="none"/>
    </clipPath>
    <clipPath id="clip-path-2">
      <rect id="Rectangle_77" data-name="Rectangle 77" width="18.077" height="27.021" fill="none"/>
    </clipPath>
    <clipPath id="clip-path-3">
      <rect id="Rectangle_78" data-name="Rectangle 78" width="18.076" height="27.021" fill="none"/>
    </clipPath>
  </defs>
  <g id="Group_159" data-name="Group 159">
    <g id="Group_158" data-name="Group 158" clip-path="url(#clip-path)">
      <path id="Path_49" data-name="Path 49" d="M154.537,0c2.251,1.24,4.739,2.469,7.085,3.925q66.128,41.005,132.2,82.107c2.825,1.759,7.092,2.719,6.894,7.144-.2,4.4-4.441,5.138-7.465,6.626-46.83,23.039-93.736,45.926-140.513,69.072-4.7,2.325-8.2,2.194-12.614-.566Q72.8,126.2,5.272,84.444c-7.118-4.411-7.1-8.1.493-11.815Q77.5,37.5,149.21,2.311c1.569-.769,3.208-1.4,5.327-2.311" transform="translate(0)" fill="#fff4e6"/>
      <path id="Path_50" data-name="Path 50" d="M300.575,102.113C263.7,120.195,228.511,137.447,193.327,154.7c-6.347,3.113-13.1,5.623-18.932,9.511-9.759,6.5-17.643,5.338-27.548-1.061C107.969,138.041,68.42,113.968,29.266,89.6c.331-3.651,3.4-3.772,5.4-4.759Q97.4,53.923,160.252,23.252c3.613-1.764,6.814-4.278,11.657-1.236,42.173,26.5,84.539,52.686,128.665,80.1" transform="translate(-13.51 -9.506)"/>
    </g>
  </g>
  <text id="Brand" transform="translate(103.754 76.298)" fill="#fff4e6" font-size="28" font-family="Beastly-12Point, Beastly"><tspan x="0" y="0">B</tspan><tspan y="0" letter-spacing="-0.007em">r</tspan><tspan y="0">and</tspan></text>
  <text id="Identity" transform="translate(88.386 105.783)" fill="#fff4e6" font-size="29" font-family="Beastly-12Point, Beastly"><tspan x="0" y="0" letter-spacing="-0.002em">I</tspan><tspan y="0" letter-spacing="-0.003em">d</tspan><tspan y="0">e</tspan><tspan y="0" letter-spacing="-0.006em">n</tspan><tspan y="0">t</tspan><tspan y="0" letter-spacing="-0.002em">i</tspan><tspan y="0">ty</tspan></text>
  <g id="Group_161" data-name="Group 161" transform="translate(141.321 121.167)">
    <g id="Group_160" data-name="Group 160" clip-path="url(#clip-path-2)">
      <path id="Path_51" data-name="Path 51" d="M267.493,239.673a3.705,3.705,0,0,1,2.915,3.138l1.308,9.248,1.307-9.248a3.7,3.7,0,0,1,2.916-3.138l4.613-.921-4.613-.921a3.7,3.7,0,0,1-2.916-3.138l-1.308-9.248-1.307,9.248a3.7,3.7,0,0,1-2.915,3.138l-4.613.921Z" transform="translate(-262.677 -225.241)" fill="#fff4e6"/>
      <path id="Path_52" data-name="Path 52" d="M267.493,239.673a3.705,3.705,0,0,1,2.915,3.138l1.308,9.248,1.307-9.248a3.7,3.7,0,0,1,2.916-3.138l4.613-.921-4.613-.921a3.7,3.7,0,0,1-2.916-3.138l-1.308-9.248-1.307,9.248a3.7,3.7,0,0,1-2.915,3.138l-4.613.921Z" transform="translate(-262.677 -225.241)" fill="#fff4e6"/>
    </g>
  </g>
  <g id="Group_163" data-name="Group 163" transform="translate(140.795 20.987)">
    <g id="Group_162" data-name="Group 162" clip-path="url(#clip-path-3)">
      <path id="Path_53" data-name="Path 53" d="M266.516,53.59a3.7,3.7,0,0,1,2.915,3.138l1.308,9.248,1.307-9.248a3.7,3.7,0,0,1,2.916-3.138l4.613-.921-4.613-.921a3.7,3.7,0,0,1-2.916-3.139l-1.308-9.248-1.307,9.248a3.7,3.7,0,0,1-2.915,3.139l-4.613.921Z" transform="translate(-261.7 -39.158)" fill="#fff4e6"/>
      <path id="Path_54" data-name="Path 54" d="M266.516,53.59a3.7,3.7,0,0,1,2.915,3.138l1.308,9.248,1.307-9.248a3.7,3.7,0,0,1,2.916-3.138l4.613-.921-4.613-.921a3.7,3.7,0,0,1-2.916-3.139l-1.308-9.248-1.307,9.248a3.7,3.7,0,0,1-2.915,3.139l-4.613.921Z" transform="translate(-261.7 -39.158)" fill="#fff4e6"/>
    </g>
  </g>
</svg>
