<svg xmlns="http://www.w3.org/2000/svg" xmlns:xlink="http://www.w3.org/1999/xlink" width="201.241" height="215.622" viewBox="0 0 201.241 215.622">
  <defs>
    <clipPath id="clip-path">
      <rect id="Rectangle_67" data-name="Rectangle 67" width="201.241" height="215.622" fill="none"/>
    </clipPath>
    <clipPath id="clip-path-2">
      <rect id="Rectangle_68" data-name="Rectangle 68" width="33.752" height="50.452" fill="none"/>
    </clipPath>
  </defs>
  <g id="Group_282" data-name="Group 282" transform="translate(-1706.624 1331.53)">
    <path id="Path_162" data-name="Path 162" d="M1710.2-1228.487c.089-20.906,5.915-93.894,96.572-100.286,77.852,1.617,98.367,66.128,98.217,98.3s0,94.808,0,94.808l-3.257,9.345-7.619,6.124H1721.115l-7.3-4.844-3.62-9.537Z"/>
    <g id="Group_278" data-name="Group 278" transform="translate(1706.624 -1331.53)">
      <g id="Group_138" data-name="Group 138">
        <g id="Group_137" data-name="Group 137" clip-path="url(#clip-path)">
          <path id="Path_32" data-name="Path 32" d="M100.127,215.6q-36.893,0-73.785,0c-1.793,0-3.589.04-5.38-.02C8.315,215.152.644,207.456.209,194.7c-.105-3.072-.023-6.151-.023-9.226,0-27.682.664-55.383-.139-83.042C-1.609,45.374,40.667,7.2,86.019,1.01c54.991-7.5,102.46,27.7,112.937,75.147a87.829,87.829,0,0,1,2.283,19.036c-.026,32.808.035,65.617-.028,98.425-.026,14.006-7.857,21.891-21.919,21.947-26.388.106-52.777.031-79.165.032m.593-6.721v.049c25.875,0,51.75.085,77.625-.039,11.836-.057,16.4-4.635,16.418-16.255q.095-48.441-.043-96.883a84.062,84.062,0,0,0-6.862-32.882C172.848,27.69,138.046,5.669,97.7,6.656,45.8,7.925,5.865,49.9,6.851,97.987c.625,30.488.115,61,.119,91.5,0,2.306-.094,4.622.079,6.917.548,7.285,4.9,11.678,12.207,12.358,1.78.166,3.583.11,5.377.111q38.043.009,76.087,0" transform="translate(0 0)" fill="#fff4e6"/>
        </g>
      </g>
      <text id="H" transform="translate(50.54 87.914) rotate(-39.144)" fill="#fff4e6" font-size="44" font-family="Beastly-12Point, Beastly"><tspan x="0" y="0">H</tspan></text>
      <text id="a" transform="matrix(0.986, -0.167, 0.167, 0.986, 78.079, 65.637)" fill="#fff4e6" font-size="44" font-family="Beastly-12Point, Beastly"><tspan x="0" y="0">a</tspan></text>
      <text id="n" transform="translate(106.233 60.561) rotate(18.058)" fill="#fff4e6" font-size="44" font-family="Beastly-12Point, Beastly"><tspan x="0" y="0">n</tspan></text>
      <text id="d" transform="translate(133.044 68.743) rotate(47.097)" fill="#fff4e6" font-size="45" font-family="Beastly-12Point, Beastly"><tspan x="0" y="0">d</tspan></text>
      <text id="Drawing" transform="translate(25.579 176.182)" fill="#fff4e6" font-size="34" font-family="Beastly-12Point, Beastly"><tspan x="0" y="0">D</tspan><tspan y="0" letter-spacing="-0.007em">r</tspan><tspan y="0" letter-spacing="-0.008em">a</tspan><tspan y="0">wing</tspan></text>
      <g id="Group_140" data-name="Group 140" transform="translate(81.208 83.355)">
        <g id="Group_139" data-name="Group 139" clip-path="url(#clip-path-2)">
          <path id="Path_33" data-name="Path 33" d="M114.607,135.349a6.917,6.917,0,0,1,5.444,5.86l2.441,17.268,2.442-17.268a6.915,6.915,0,0,1,5.443-5.86l8.613-1.72-8.613-1.72a6.917,6.917,0,0,1-5.443-5.86l-2.442-17.268-2.441,17.268a6.915,6.915,0,0,1-5.443,5.859l-8.613,1.72Z" transform="translate(-105.615 -108.403)" fill="#fff4e6"/>
          <path id="Path_34" data-name="Path 34" d="M114.607,135.349a6.917,6.917,0,0,1,5.444,5.86l2.441,17.268,2.442-17.268a6.915,6.915,0,0,1,5.443-5.86l8.613-1.72-8.613-1.72a6.917,6.917,0,0,1-5.443-5.86l-2.442-17.268-2.441,17.268a6.915,6.915,0,0,1-5.443,5.859l-8.613,1.72Z" transform="translate(-105.615 -108.403)" fill="#fff4e6"/>
        </g>
      </g>
    </g>
  </g>
</svg>
