<svg id="Group_281" data-name="Group 281" xmlns="http://www.w3.org/2000/svg" xmlns:xlink="http://www.w3.org/1999/xlink" width="361.428" height="213.824" viewBox="0 0 361.428 213.824">
  <defs>
    <clipPath id="clip-path">
      <rect id="Rectangle_73" data-name="Rectangle 73" width="361.428" height="213.824" fill="none"/>
    </clipPath>
    <clipPath id="clip-path-2">
      <rect id="Rectangle_74" data-name="Rectangle 74" width="20.315" height="30.368" fill="none"/>
    </clipPath>
  </defs>
  <rect id="Rectangle_72" data-name="Rectangle 72" width="253.962" height="142.624" transform="translate(56.436 38.634)" fill="#0f7c11"/>
  <g id="Group_152" data-name="Group 152">
    <g id="Group_151" data-name="Group 151" clip-path="url(#clip-path)">
      <path id="Path_42" data-name="Path 42" d="M11.712,171.04a70.077,70.077,0,0,0-6.72-5.281c-6.2-3.789-6.993-10.154.245-14.681a71.521,71.521,0,0,0,6.346-5.055c-1.883-3.388-5.326-4.835-7.874-7.176-4.812-4.42-4.912-7.881-.117-12.168,1.343-1.2,2.821-2.252,4.225-3.386,1.2-.969,2.383-1.957,3.775-3.1-1.967-3.329-5.347-4.873-7.966-7.214-4.773-4.267-4.838-8.024-.011-12.188,2.522-2.175,5.221-4.146,8.515-6.739C8.815,91.36,5.807,89.125,3.04,86.624c-4.064-3.672-4.052-7.421.026-11.137,2.639-2.4,5.519-4.543,8.666-7.107C9.536,65.4,6.545,63.846,4.1,61.718c-5.506-4.8-5.476-8.411.247-13.183,2.356-1.964,4.825-3.791,7.4-5.8-2.379-3.3-5.685-4.966-8.29-7.4-5.083-4.743-3.853-10.318,2.806-12.09,4.494-1.195,9.038-2.184,13.086-4.555,4.793-2.806,8.877-6.105,9.368-12.353.333-4.247,3.07-6.318,7.33-6.322C37.6.016,39.148,0,40.7,0q139.785,0,279.572.006c2.064,0,4.136-.053,6.192.089,2.871.2,5.169,1.781,5.595,4.521,1.757,11.287,10.46,14.406,19.553,17.176.983.3,2.019.418,3.026.642,3.258.722,5.768,2.4,6.539,5.812.735,3.247-1.336,5.272-3.521,7.22-2.648,2.361-6.148,3.808-7.957,7.3,2.868,2.307,5.8,4.434,8.466,6.862,4.335,3.954,4.351,7.11.066,11.04-2.635,2.417-5.541,4.54-8.531,6.961,1.874,3.2,4.919,4.755,7.41,6.878,5.758,4.908,5.741,8.072-.161,13.059-2.357,1.991-4.8,3.885-7.437,6.012,1.783,2.815,4.565,4.221,6.856,6.126,6.694,5.564,6.712,8.611.163,14.079-2.339,1.953-5.279,3.287-6.866,6.384,2.205,1.778,4.4,3.532,6.58,5.311,6.962,5.691,6.906,8.649-.26,14.5-2,1.631-3.995,3.258-6.155,5.02,1.606,3.57,5.146,4.968,7.755,7.308,5,4.486,5.076,7.7.122,12.119-1.345,1.2-2.846,2.222-4.253,3.355-1.2.967-2.367,1.974-3.912,3.268,1.785,3,4.841,4.447,7.287,6.458,2.647,2.175,4.1,4.659,3.1,8.073-.928,3.169-3.556,4.361-6.5,4.663a40.543,40.543,0,0,0-16.159,4.882c-4.659,2.644-8.106,6.013-9.1,11.739-.979,5.608-2.692,6.657-8.418,6.912-1.8.08-3.613.019-5.42.019q-138.624,0-277.249,0c-1.807,0-3.614,0-5.42-.023-3.888-.058-6.679-2.074-7.174-5.768-1.1-8.22-7.044-11.47-13.557-14.378-2.569-1.147-5.434-1.567-7.685-3.5-4.019-3.458-4.28-7.549-.428-11.22,2.772-2.644,6.385-4.347,8.9-7.871M352.47,30.39c-.628-1.837-1.965-2.012-3.175-2.42-9.963-3.361-19.492-7.248-23.128-18.545-.735-2.281-2.688-2.986-4.9-3.045-2.064-.055-4.129-.077-6.193-.077q-134.729,0-269.457,0c-1.806,0-3.613.06-5.42.037-2.924-.036-4.853,1.068-5.65,4.117-2.356,9.02-9.66,12.867-17.3,16.364-2.478,1.133-5.666.933-7.344,3.7.5,2.671,2.79,3.632,4.53,5.08,1.586,1.318,3.2,2.607,4.769,3.941,2.639,2.24,2.333,4.229-.394,6.232-2.7,1.982-5.3,4.109-7.86,6.268-3.723,3.138-3.726,3.729.151,6.957,2.378,1.98,4.974,3.7,7.368,5.656,3.975,3.255,4,3.792.222,6.911-2.583,2.135-5.392,4-7.94,6.174C7.195,80.764,7.21,81.254,10.68,84.2c2.75,2.337,5.606,4.553,8.467,6.754,2.407,1.85,2.559,3.753.23,5.692-1.981,1.649-4.1,3.133-6.1,4.754-5.933,4.8-5.892,6.078.245,11.01,2.009,1.615,4.039,3.207,5.985,4.9s2.109,3.382-.119,5.081q-4.305,3.281-8.487,6.725c-3.7,3.054-3.7,3.97-.067,7.167.964.849,2.091,1.511,3.1,2.308,10,7.869,10.1,6.3.154,14.1-7.534,5.914-7.7,5.991.024,11.644,8.414,6.157,9.877,6.892.068,13.912-7.434,5.321-7.138,6.5,1.29,10.323,6.8,3.083,12.525,7.251,14.735,14.839.877,3.011,2.965,4.022,5.79,4.092,2.322.057,4.645.076,6.967.076q133.18.006,266.36,0c1.806,0,3.618-.095,5.419,0,3.771.206,6.209-1.072,7.7-4.906,3.658-9.424,11.218-14.38,20.619-17.1,2.594-.751,5.63-.628,8.327-3.314-2.555-2.248-4.8-4.289-7.115-6.247-5.272-4.46-5.313-5.022-.277-9.232,2.176-1.819,4.306-3.713,6.618-5.346,2.661-1.88,2.422-3.718.239-5.623-2.716-2.372-5.612-4.543-8.271-6.975-3.041-2.781-3.017-4.047.15-6.876,2.11-1.885,4.522-3.427,6.708-5.233,4.348-3.592,4.327-4.673.013-8.307-.591-.5-1.255-.907-1.868-1.379-9.117-7.03-9.118-7.08-.464-14.228,7.532-6.222,7.533-6.222.027-11.988-1.432-1.1-2.893-2.165-4.3-3.3-4.051-3.273-4.055-3.513-.3-6.822,2.129-1.878,4.322-3.687,6.4-5.623,3.914-3.651,3.919-5-.1-8.6-2.108-1.887-4.48-3.477-6.6-5.348-2.161-1.906-2.157-4.05.034-5.943,2.535-2.189,5.306-4.112,7.767-6.378,3.592-3.308,3.553-4.26.033-7.352-1.546-1.359-3.335-2.438-4.912-3.764-6.048-5.086-5.959-6.1.1-10.952,2.533-2.028,5.7-3.463,7.206-6.355" transform="translate(0 0)" fill="#fff4e6"/>
      <path id="Path_43" data-name="Path 43" d="M354.817,32.22c-1.509,2.892-4.673,4.327-7.2,6.355-6.064,4.855-6.153,5.867-.105,10.952,1.577,1.327,3.366,2.405,4.912,3.764,3.52,3.093,3.56,4.045-.033,7.353-2.46,2.266-5.231,4.189-7.767,6.378-2.191,1.893-2.2,4.037-.034,5.943,2.122,1.871,4.5,3.461,6.6,5.348,4.023,3.6,4.018,4.952.1,8.6-2.075,1.936-4.267,3.745-6.4,5.622-3.754,3.31-3.75,3.55.3,6.823,1.4,1.134,2.866,2.2,4.3,3.3,7.506,5.767,7.506,5.767-.026,11.988-8.654,7.148-8.653,7.2.463,14.228.613.473,1.277.882,1.868,1.379,4.314,3.633,4.336,4.714-.013,8.307-2.186,1.806-4.6,3.348-6.708,5.233-3.168,2.83-3.192,4.1-.15,6.876,2.659,2.432,5.555,4.6,8.272,6.975,2.182,1.905,2.422,3.744-.239,5.623-2.312,1.633-4.442,3.527-6.618,5.347-5.035,4.21-5,4.772.277,9.231,2.315,1.958,4.56,4,7.115,6.247-2.7,2.687-5.733,2.563-8.327,3.315-9.4,2.721-16.962,7.675-20.619,17.1-1.488,3.834-3.926,5.111-7.7,4.906-1.8-.1-3.612,0-5.419,0q-133.18,0-266.36,0c-2.322,0-4.645-.019-6.966-.076-2.826-.071-4.914-1.081-5.791-4.092-2.211-7.589-7.933-11.757-14.735-14.839-8.429-3.819-8.725-5-1.289-10.323,9.808-7.021,8.345-7.755-.069-13.912-7.726-5.654-7.558-5.73-.024-11.644,9.943-7.806,9.843-6.234-.154-14.1-1.013-.8-2.139-1.459-3.1-2.308-3.63-3.2-3.632-4.114.067-7.167q4.175-3.445,8.487-6.725c2.229-1.7,2.063-3.394.119-5.081s-3.975-3.281-5.985-4.9c-6.136-4.931-6.178-6.21-.245-11.01,2-1.621,4.121-3.1,6.1-4.754,2.329-1.939,2.177-3.841-.229-5.692-2.862-2.2-5.718-4.417-8.468-6.754-3.47-2.95-3.485-3.439.062-6.466,2.547-2.174,5.356-4.04,7.94-6.174,3.774-3.118,3.754-3.655-.222-6.91-2.394-1.96-4.99-3.677-7.368-5.656-3.878-3.228-3.874-3.819-.151-6.957,2.563-2.159,5.161-4.287,7.86-6.269,2.727-2,3.033-3.991.394-6.232-1.571-1.334-3.182-2.622-4.768-3.941-1.741-1.448-4.033-2.408-4.531-5.079,1.678-2.762,4.866-2.563,7.344-3.7,7.646-3.5,14.949-7.344,17.3-16.363.8-3.049,2.726-4.153,5.651-4.117,1.806.022,3.613-.037,5.419-.037q134.728,0,269.457,0c2.064,0,4.129.022,6.193.077,2.215.058,4.17.763,4.9,3.045,3.637,11.3,13.165,15.183,23.128,18.545,1.21.408,2.548.583,3.175,2.42M183.643,34.479q-58.814,0-117.63,0c-2.064,0-4.132-.067-6.191.043-6,.318-6.642,1.12-6.253,6.926.241,3.6.425,7.21.429,10.814q.044,59.229.02,118.458c0,12.245-1.048,12.372,12.188,12.366q106.8-.049,213.591-.013c8,0,15.994.04,23.991-.013,8.5-.056,8.831-.409,8.95-8.571.007-.516,0-1.032,0-1.548q0-63.874,0-127.748c0-10.663-.029-10.707-10.693-10.712q-59.2-.029-118.4,0" transform="translate(-2.347 -1.831)" fill="#0f7c11"/>
      <path id="Path_44" data-name="Path 44" d="M196.15,42.124q59.2,0,118.4.005c10.663.005,10.69.049,10.693,10.712q.014,63.874,0,127.748c0,.516.007,1.032,0,1.548-.119,8.162-.446,8.515-8.95,8.571-8,.053-15.994.012-23.991.012q-106.8,0-213.591.013c-13.236.006-12.187-.12-12.188-12.366q-.009-59.228-.02-118.457c0-3.606-.188-7.216-.429-10.814-.39-5.806.256-6.608,6.253-6.926,2.059-.109,4.126-.043,6.191-.043q58.814,0,117.63,0m-.518,6q-57.7,0-115.4.015c-8.411.008-8.794.469-8.938,8.652-.009.516,0,1.033,0,1.55q0,57.725.01,115.451c.005,10.9.044,10.914,11.276,10.914q99.91.006,199.82,0c9.81,0,19.622.086,29.43-.038,6.533-.083,7.128-.778,7.406-7.025.057-1.289.022-2.583.022-3.874q0-57.338,0-114.677c0-1.292.037-2.585-.022-3.874-.285-6.192-.955-6.836-7.431-7.072-1.8-.066-3.614-.017-5.421-.017q-55.376,0-110.753,0" transform="translate(-14.854 -9.479)" fill="#fff4e6"/>
    </g>
  </g>
  <g id="Group_154" data-name="Group 154" transform="translate(81.479 69.406)">
    <g id="Group_153" data-name="Group 153" clip-path="url(#clip-path-2)">
      <path id="Path_45" data-name="Path 45" d="M110.627,105.854a4.163,4.163,0,0,1,3.276,3.527l1.469,10.393,1.47-10.393a4.163,4.163,0,0,1,3.276-3.527l5.184-1.035-5.184-1.035a4.163,4.163,0,0,1-3.276-3.527l-1.47-10.394L113.9,100.257a4.164,4.164,0,0,1-3.276,3.527l-5.184,1.035Z" transform="translate(-105.214 -89.634)" fill="#fff4e6"/>
      <path id="Path_46" data-name="Path 46" d="M110.627,105.854a4.163,4.163,0,0,1,3.276,3.527l1.469,10.393,1.47-10.393a4.163,4.163,0,0,1,3.276-3.527l5.184-1.035-5.184-1.035a4.163,4.163,0,0,1-3.276-3.527l-1.47-10.394L113.9,100.257a4.164,4.164,0,0,1-3.276,3.527l-5.184,1.035Z" transform="translate(-105.214 -89.634)" fill="#fff4e6"/>
    </g>
  </g>
  <g id="Group_156" data-name="Group 156" transform="translate(260.912 62.99)">
    <g id="Group_155" data-name="Group 155" clip-path="url(#clip-path-2)">
      <path id="Path_47" data-name="Path 47" d="M342.186,97.575a4.163,4.163,0,0,1,3.276,3.527l1.469,10.393L348.4,101.1a4.162,4.162,0,0,1,3.276-3.527l5.184-1.035L351.678,95.5a4.162,4.162,0,0,1-3.276-3.527l-1.47-10.394-1.469,10.394a4.164,4.164,0,0,1-3.276,3.527L337,96.539Z" transform="translate(-336.773 -81.355)" fill="#fff4e6"/>
      <path id="Path_48" data-name="Path 48" d="M342.186,97.575a4.163,4.163,0,0,1,3.276,3.527l1.469,10.393L348.4,101.1a4.162,4.162,0,0,1,3.276-3.527l5.184-1.035L351.678,95.5a4.162,4.162,0,0,1-3.276-3.527l-1.47-10.394-1.469,10.394a4.164,4.164,0,0,1-3.276,3.527L337,96.539Z" transform="translate(-336.773 -81.355)" fill="#fff4e6"/>
    </g>
  </g>
  <text id="UI" transform="translate(154.367 92.52)" fill="#fff4e6" font-size="46" font-family="Beastly-12Point, Beastly"><tspan x="0" y="0">UI</tspan></text>
  <text id="Design" transform="translate(95.134 145.895)" fill="#fff4e6" font-size="46" font-family="Beastly-12Point, Beastly"><tspan x="0" y="0">Design</tspan></text>
</svg>
