<?xml version="1.0" encoding="UTF-8"?>
<svg id="Layer_2" data-name="Layer 2" xmlns="http://www.w3.org/2000/svg" viewBox="0 0 300.72 170.51">
  <defs>
    <style>
      .cls-1 {
        font-family: Benzin-Bold, Benzin-Bold;
        font-size: 25px;
        font-weight: 700;
      }

      .cls-1, .cls-2 {
        fill: #fff4e6;
      }

      .cls-3 {
        letter-spacing: 0em;
      }
    </style>
  </defs>
  <g id="BI">
    <path id="Stroke" class="cls-2" d="m154.54,0c2.25,1.24,4.74,2.47,7.09,3.92,44.09,27.34,88.15,54.71,132.2,82.11,2.83,1.76,7.09,2.72,6.89,7.14-.2,4.4-4.44,5.14-7.46,6.63-46.83,23.04-93.74,45.93-140.51,69.07-4.7,2.32-8.2,2.19-12.61-.57C95.24,140.24,50.29,112.28,5.27,84.44c-7.12-4.41-7.1-8.1.49-11.82C53.59,49.21,101.4,25.77,149.21,2.31c1.57-.77,3.21-1.4,5.33-2.31"/>
    <path id="Plate" d="m280.95,95.42c-4.05,1.96-114.8,55.57-120.39,59.29-9.76,6.5-17.64,5.34-27.55-1.06-37.33-24.11-75.29-47.27-112.91-70.65-5.87-3.68-2.34-6.08.73-7.66,41.82-20.61,83.68-41.14,125.59-61.59,3.61-1.76,6.81-4.28,11.66-1.24,39.77,24.99,79.7,49.7,121.13,75.42,5.77,3.54,5.8,5.53,1.74,7.49Z"/>
    <path id="Star2" class="cls-2" d="m144.79,139.42c1.54.32,2.71,1.58,2.92,3.14l1.31,9.25,1.31-9.25c.21-1.56,1.38-2.82,2.92-3.14l4.61-.92-4.61-.92c-1.54-.32-2.71-1.58-2.92-3.14l-1.31-9.25-1.31,9.25c-.21,1.56-1.38,2.82-2.92,3.14l-4.61.92,4.61.92Z"/>
    <path id="Star1" class="cls-2" d="m150.02,32.11c1.54.32,2.71,1.58,2.92,3.14l1.31,9.25,1.31-9.25c.21-1.56,1.38-2.82,2.92-3.14l4.61-.92-4.61-.92c-1.54-.32-2.71-1.58-2.92-3.14l-1.31-9.25-1.31,9.25c-.21,1.56-1.37,2.82-2.92,3.14l-4.61.92,4.61.92Z"/>
    <text class="cls-1" transform="translate(101.79 75.51)"><tspan x="0" y="0">Brand</tspan></text>
    <text class="cls-1" transform="translate(90.32 109.57)"><tspan class="cls-3" x="0" y="0">I</tspan><tspan x="8.03" y="0">dentity</tspan></text>
  </g>
</svg>