<svg id="Group_319" data-name="Group 319" xmlns="http://www.w3.org/2000/svg" xmlns:xlink="http://www.w3.org/1999/xlink" width="227.834" height="227.916" viewBox="0 0 227.834 227.916">
  <defs>
    <clipPath id="clip-path">
      <rect id="Rectangle_130" data-name="Rectangle 130" width="227.834" height="227.916" fill="none"/>
    </clipPath>
  </defs>
  <g id="Group_318" data-name="Group 318">
    <g id="Group_317" data-name="Group 317" clip-path="url(#clip-path)">
      <path id="Path_171" data-name="Path 171" d="M227.834,113.96A113.917,113.917,0,1,1,113.918,0,113.917,113.917,0,0,1,227.834,113.96Z" fill="#0f7c11"/>
      <path id="Path_172" data-name="Path 172" d="M.055,114.163A113.936,113.936,0,0,1,113.534,0c62.629-.324,114.2,50.824,114.3,113.37.1,63.242-50.846,114.5-113.851,114.544C51.263,227.957.177,176.952.055,114.163m5.922-.545c-.1,59.892,48.048,108.43,107.636,108.521,59.626.09,108.382-48.394,108.475-107.873a108.056,108.056,0,0,0-216.111-.648" fill="#fff4e6"/>
      <path id="Path_173" data-name="Path 173" d="M105.548,115.68a7.378,7.378,0,0,1,5.806,6.251l2.608,18.421,2.606-18.421a7.378,7.378,0,0,1,5.806-6.251l9.189-1.835-9.189-1.834a7.378,7.378,0,0,1-5.806-6.251l-2.606-18.421-2.608,18.421a7.378,7.378,0,0,1-5.806,6.251l-9.189,1.834Z" fill="#fff4e6"/>
    </g>
  </g>
  <text id="G" transform="matrix(0.572, -0.82, 0.82, 0.572, 50.526, 85.695)" fill="#fdf4e7" font-size="40" font-family="Beastly-12Point, Beastly"><tspan x="0" y="0">G</tspan></text>
  <text id="r" transform="matrix(0.829, -0.559, 0.559, 0.829, 67.158, 63.163)" fill="#fdf4e7" font-size="40" font-family="Beastly-12Point, Beastly"><tspan x="0" y="0">r</tspan></text>
  <text id="a" transform="translate(79.94 53.37) rotate(-16.283)" fill="#fdf4e7" font-size="40" font-family="Beastly-12Point, Beastly"><tspan x="0" y="0">a</tspan></text>
  <text id="p" transform="translate(104.211 46.037) rotate(2.951)" fill="#fdf4e7" font-size="40" font-family="Beastly-12Point, Beastly"><tspan x="0" y="0">p</tspan></text>
  <text id="h" transform="translate(128.849 46.86) rotate(22.437)" fill="#fdf4e7" font-size="40" font-family="Beastly-12Point, Beastly"><tspan x="0" y="0">h</tspan></text>
  <text id="i" transform="matrix(0.774, 0.633, -0.633, 0.774, 151.965, 57.054)" fill="#fdf4e7" font-size="40" font-family="Beastly-12Point, Beastly"><tspan x="0" y="0">i</tspan></text>
  <text id="c" transform="translate(162.645 64.28) rotate(56.951)" fill="#fdf4e7" font-size="40" font-family="Beastly-12Point, Beastly"><tspan x="0" y="0">c</tspan></text>
  <text id="D" transform="matrix(0.728, 0.686, -0.686, 0.728, 40.981, 172.446)" fill="#fdf4e7" font-size="40" font-family="Beastly-12Point, Beastly"><tspan x="0" y="0">D</tspan></text>
  <text id="e" transform="matrix(0.941, 0.339, -0.339, 0.941, 69.367, 196.254)" fill="#fdf4e7" font-size="40" font-family="Beastly-12Point, Beastly"><tspan x="0" y="0">e</tspan></text>
  <text id="s" transform="matrix(0.999, 0.033, -0.033, 0.999, 98.565, 205.699)" fill="#fdf4e7" font-size="40" font-family="Beastly-12Point, Beastly"><tspan x="0" y="0">s</tspan></text>
  <text id="i-2" data-name="i" transform="matrix(0.979, -0.203, 0.203, 0.979, 126.718, 205.6)" fill="#fdf4e7" font-size="40" font-family="Beastly-12Point, Beastly"><tspan x="0" y="0">i</tspan></text>
  <text id="g-2" data-name="g" transform="translate(145.538 201.819) rotate(-26.831)" fill="#fdf4e7" font-size="40" font-family="Beastly-12Point, Beastly"><tspan x="0" y="0">g</tspan></text>
  <text id="n" transform="translate(173.591 186.394) rotate(-50.084)" fill="#fdf4e7" font-size="40" font-family="Beastly-12Point, Beastly"><tspan x="0" y="0">n</tspan></text>
</svg>
