<?xml version="1.0" encoding="UTF-8"?>
<svg id="Layer_2" data-name="Layer 2" xmlns="http://www.w3.org/2000/svg" viewBox="0 0 201.24 215.62">
  <defs>
    <style>
      .cls-1 {
        font-size: 30px;
      }

      .cls-1, .cls-2 {
        font-family: Benzin-Bold, Benzin-Bold;
        font-weight: 700;
      }

      .cls-1, .cls-2, .cls-3 {
        fill: #fff4e6;
      }

      .cls-2 {
        font-size: 39px;
      }

      .cls-4 {
        letter-spacing: 0em;
      }

      .cls-5 {
        letter-spacing: -.06em;
      }
    </style>
  </defs>
  <g id="HD">
    <path id="Path_162" data-name="Path 162" d="m3.08,103.04c.09-20.91,5.92-93.89,96.57-100.29,77.85,1.62,98.37,66.13,98.22,98.3s0,94.81,0,94.81l-3.26,9.34-7.62,6.12H13.99l-7.3-4.84-3.62-9.54v-93.91Z"/>
    <path id="Path_32" data-name="Path 32" class="cls-3" d="m100.13,215.6c-24.6,0-49.19,0-73.79,0-1.79,0-3.59.04-5.38-.02-12.65-.43-20.32-8.12-20.75-20.88-.1-3.07-.02-6.15-.02-9.23,0-27.68.66-55.38-.14-83.04C-1.61,45.37,40.67,7.2,86.02,1.01c54.99-7.5,102.46,27.7,112.94,75.15,1.45,6.24,2.22,12.63,2.28,19.04-.03,32.81.04,65.62-.03,98.43-.03,14.01-7.86,21.89-21.92,21.95-26.39.11-52.78.03-79.17.03m.59-6.72v.05c25.88,0,51.75.09,77.63-.04,11.84-.06,16.4-4.63,16.42-16.26.06-32.29.05-64.59-.04-96.88-.05-11.31-2.39-22.49-6.86-32.88C172.85,27.69,138.05,5.67,97.7,6.66,45.8,7.92,5.87,49.9,6.85,97.99c.62,30.49.11,61,.12,91.5,0,2.31-.09,4.62.08,6.92.55,7.29,4.9,11.68,12.21,12.36,1.78.17,3.58.11,5.38.11,25.36,0,50.72,0,76.09,0"/>
    <path id="Path_33" data-name="Path 33" class="cls-3" d="m92.76,110.45c2.88.55,5.11,2.86,5.54,5.77l2.73,17.23,2.15-17.31c.34-2.92,2.48-5.3,5.34-5.95l8.58-1.87-8.64-1.57c-2.88-.55-5.11-2.86-5.54-5.77l-2.74-17.23-2.15,17.31c-.34,2.92-2.48,5.3-5.34,5.95l-8.58,1.87,8.64,1.57Z"/>
    <text class="cls-1" transform="translate(22.89 175.6)"><tspan x="0" y="0">Dr</tspan><tspan class="cls-5" x="43.08" y="0">a</tspan><tspan class="cls-4" x="64.92" y="0">wing</tspan></text>
    <g>
      <text class="cls-2" transform="translate(48.76 86.51) rotate(-44.96)"><tspan x="0" y="0">H</tspan></text>
      <text class="cls-2" transform="translate(74.84 61.67) rotate(-10.57)"><tspan x="0" y="0">a</tspan></text>
      <text class="cls-2" transform="translate(103.83 56.03) rotate(17.52)"><tspan x="0" y="0">n</tspan></text>
      <text class="cls-2" transform="translate(131.35 63.97) rotate(49.1)"><tspan x="0" y="0">d</tspan></text>
    </g>
  </g>
</svg>